<svg width="226" height="22" viewBox="0 0 226 22" fill="none" xmlns="http://www.w3.org/2000/svg">
<path fill-rule="evenodd" clip-rule="evenodd" d="M11.9126 15.0607H9.8052L8.22492 8.6606C8.14992 8.3662 7.99066 8.10593 7.75639 7.98326C7.17175 7.67499 6.52751 7.42965 5.82471 7.30591V7.05951H9.21953C9.68807 7.05951 10.0395 7.42965 10.098 7.85952L10.918 12.4761L13.0243 7.05951H15.0731L11.9126 15.0607ZM16.2445 15.0607H14.2542L15.8931 7.05951H17.8833L16.2445 15.0607ZM20.4582 9.27611C20.5168 8.84517 20.8682 8.59876 21.2782 8.59876C21.9224 8.5369 22.6242 8.66063 23.2098 8.96784L23.5612 7.24514C22.9756 6.99874 22.3313 6.875 21.7467 6.875C19.815 6.875 18.4094 7.98329 18.4094 9.52145C18.4094 10.6916 19.4051 11.306 20.1079 11.6762C20.8682 12.0452 21.161 12.2916 21.1025 12.6607C21.1025 13.2143 20.5168 13.4607 19.9322 13.4607C19.2293 13.4607 18.5265 13.2762 17.8833 12.9679L17.5319 14.6917C18.2347 14.9989 18.9951 15.1226 19.6979 15.1226C21.8638 15.1834 23.2098 14.0762 23.2098 12.4143C23.2098 10.3215 20.4582 10.1988 20.4582 9.27611ZM30.1752 15.0607L28.5949 7.05951H26.8975C26.5461 7.05951 26.1947 7.30591 26.0776 7.67499L23.1513 15.0607H25.2001L25.609 13.8916H28.1264L28.3607 15.0607H30.1752ZM27.1903 9.21428L27.7749 12.2298H26.1361L27.1903 9.21428Z" fill="#1434CB"/>
<path d="M55.9999 5.4995C54.3807 6.75378 53.3333 8.75075 53.3333 11C53.3333 13.2492 54.3807 15.2462 55.9999 16.5005C54.8857 17.3636 53.5007 17.875 51.9999 17.875C48.318 17.875 45.3333 14.797 45.3333 11C45.3333 7.20304 48.318 4.125 51.9999 4.125C53.5007 4.125 54.8857 4.63642 55.9999 5.4995Z" fill="#ED0006"/>
<path d="M55.9999 16.5005C54.3807 15.2462 53.3333 13.2492 53.3333 11C53.3333 8.75075 54.3807 6.75378 55.9999 5.4995C57.6192 6.75378 58.6666 8.75075 58.6666 11C58.6666 13.2493 57.6192 15.2462 55.9999 16.5005Z" fill="#FF5E00"/>
<path d="M56 16.5005C57.6193 15.2462 58.6667 13.2492 58.6667 11C58.6667 8.75075 57.6193 6.75378 56 5.4995C57.1142 4.63642 58.4992 4.125 60 4.125C63.6819 4.125 66.6667 7.20304 66.6667 11C66.6667 14.797 63.6819 17.875 60 17.875C58.4992 17.875 57.1142 17.3636 56 16.5005Z" fill="#F9A000"/>
<path fill-rule="evenodd" clip-rule="evenodd" d="M86.8084 7.28887C86.5427 7.62668 86.1177 7.89312 85.6926 7.85505C85.6395 7.3983 85.8476 6.91299 86.0911 6.61325C86.3568 6.26592 86.8217 6.01851 87.198 5.99948C87.2423 6.47527 87.0696 6.94154 86.8084 7.28887ZM90.7489 6.56564V13.9832H91.8204V11.4472H93.3036C94.6585 11.4472 95.6104 10.4481 95.6104 9.00167C95.6104 7.55528 94.6762 6.56564 93.3391 6.56564H90.7489ZM93.0556 7.53628H91.8203V10.4814H93.0512C93.9854 10.4814 94.5167 9.94376 94.5167 9.00646C94.5167 8.06916 93.9854 7.53628 93.0556 7.53628ZM97.5675 14.0403C98.2405 14.0403 98.8648 13.6739 99.1481 13.0935H99.1703V13.9832H100.162V10.2911C100.162 9.22056 99.3651 8.53067 98.1386 8.53067C97.0007 8.53067 96.1595 9.23008 96.1285 10.1912H97.0937C97.1734 9.73441 97.5675 9.43467 98.1076 9.43467C98.7629 9.43467 99.1304 9.76296 99.1304 10.3672V10.7764L97.7933 10.862C96.5491 10.9429 95.8761 11.4901 95.8761 12.4416C95.8761 13.4027 96.5713 14.0403 97.5675 14.0403ZM96.921 12.4131C96.921 12.8651 97.284 13.1601 97.8552 13.1601C98.5813 13.1601 99.1303 12.6652 99.1303 11.9706V11.5519L97.9393 11.6328C97.2708 11.6756 96.921 11.9468 96.921 12.4131ZM101.486 16.0006C102.531 16.0006 103.022 15.5724 103.452 14.2735L105.333 8.60207H104.244L102.982 12.9841H102.96L101.698 8.60207H100.578L102.394 14.0023L102.296 14.3305C102.132 14.8872 101.867 15.1013 101.393 15.1013C101.309 15.1013 101.145 15.0918 101.079 15.0823V15.972C101.14 15.991 101.406 16.0006 101.486 16.0006ZM86.2014 8.18288C86.4774 8.06642 86.8191 7.92225 87.1936 7.94541C87.4327 7.96444 88.1234 8.04057 88.5661 8.74473C88.5641 8.74637 88.5596 8.74951 88.5529 8.75417C88.4434 8.83072 87.7475 9.317 87.7559 10.2768C87.7642 11.4202 88.631 11.8466 88.7444 11.9024C88.7518 11.9061 88.7565 11.9087 88.7565 11.9087C88.756 11.9103 88.7551 11.9133 88.7539 11.9178C88.7312 11.9965 88.5821 12.5148 88.2429 13.0458C87.9285 13.5407 87.6053 14.026 87.0917 14.0355C86.85 14.0401 86.6872 13.9645 86.5177 13.8858C86.3394 13.803 86.1536 13.7167 85.8609 13.7167C85.5576 13.7167 85.3633 13.8053 85.1764 13.8905C85.0139 13.9646 84.857 14.0362 84.6389 14.045C84.143 14.064 83.7666 13.5216 83.4523 13.0268C82.8103 12.0277 82.3188 10.2102 82.9829 8.98263C83.3062 8.36886 83.895 7.98347 84.5282 7.97396C84.8044 7.96856 85.0678 8.08101 85.2982 8.17936C85.474 8.25443 85.6306 8.32128 85.759 8.32128C85.8735 8.32128 86.0238 8.25782 86.2014 8.18288Z" fill="black"/>
<path fill-rule="evenodd" clip-rule="evenodd" d="M131.121 13.7163V10.8918H132.534C133.114 10.8918 133.603 10.6916 134.001 10.2968L134.097 10.1967C134.825 9.37937 134.777 8.10608 134.001 7.34989C133.613 6.94955 133.082 6.7327 132.534 6.74382H130.265V13.7163H131.121ZM131.121 10.0354V7.60005H132.556C132.864 7.60005 133.157 7.72237 133.374 7.94478C133.837 8.41184 133.848 9.19027 133.401 9.67401C133.183 9.9131 132.875 10.0465 132.556 10.0354H131.121Z" fill="#3C4043"/>
<path fill-rule="evenodd" clip-rule="evenodd" d="M138.088 9.3182C137.721 8.9679 137.222 8.78997 136.589 8.78997C135.776 8.78997 135.165 9.10135 134.761 9.71853L135.516 10.2134C135.792 9.79081 136.169 9.57953 136.648 9.57953C136.951 9.57953 137.243 9.69629 137.472 9.90758C137.695 10.1077 137.822 10.3969 137.822 10.7027V10.9084C137.493 10.7194 137.078 10.6193 136.568 10.6193C135.973 10.6193 135.495 10.7639 135.138 11.0585C134.782 11.3532 134.602 11.7425 134.602 12.2373C134.591 12.6877 134.777 13.1158 135.107 13.405C135.441 13.7163 135.867 13.872 136.366 13.872C136.956 13.872 137.424 13.5996 137.78 13.0547H137.817V13.7163H138.635V10.775C138.635 10.1578 138.455 9.66849 138.088 9.3182ZM135.766 12.8378C135.59 12.7044 135.484 12.4875 135.484 12.254C135.484 11.9926 135.601 11.7758 135.83 11.6034C136.063 11.4311 136.356 11.3421 136.701 11.3421C137.18 11.3365 137.552 11.4477 137.817 11.6702C137.817 12.0483 137.674 12.3763 137.392 12.6543C137.137 12.9212 136.792 13.0713 136.43 13.0713C136.191 13.0769 135.957 12.9935 135.766 12.8378Z" fill="#3C4043"/>
<path d="M143.333 8.94565L140.474 15.8125H139.592L140.655 13.4105L138.779 8.94565H139.709L141.064 12.3708H141.08L142.403 8.94565H143.333Z" fill="#3C4043"/>
<path d="M128.167 10.2801C128.167 10.0076 128.146 9.73517 128.103 9.46828H124.494V11.0085H126.562C126.477 11.5033 126.2 11.9481 125.797 12.2262V13.227H127.029C127.752 12.532 128.167 11.5033 128.167 10.2801Z" fill="#4285F4"/>
<path d="M124.495 14.1944C125.526 14.1944 126.397 13.8386 127.029 13.227L125.797 12.2262C125.451 12.4708 125.01 12.6098 124.495 12.6098C123.495 12.6098 122.65 11.9036 122.348 10.9584H121.077V11.9926C121.726 13.3437 123.049 14.1944 124.495 14.1944Z" fill="#34A853"/>
<path d="M122.348 10.9584C122.188 10.4635 122.188 9.92429 122.348 9.42387V8.39523H121.077C120.53 9.52396 120.53 10.8584 121.077 11.9871L122.348 10.9584Z" fill="#FBBC04"/>
<path d="M124.495 7.77244C125.042 7.76132 125.568 7.97817 125.961 8.37294L127.056 7.22754C126.36 6.54919 125.446 6.17665 124.495 6.18777C123.049 6.18777 121.726 7.04409 121.077 8.39523L122.348 9.42939C122.65 8.47859 123.495 7.77244 124.495 7.77244Z" fill="#EA4335"/>
<path d="M164.285 9.98246H162.877C162.877 9.75147 162.85 9.5965 162.796 9.51754C162.712 9.40084 162.481 9.34235 162.103 9.34235C161.735 9.34235 161.492 9.37594 161.373 9.44326C161.254 9.51084 161.195 9.65766 161.195 9.8837C161.195 10.0883 161.247 10.2232 161.353 10.2877C161.429 10.3336 161.529 10.3605 161.653 10.3686L161.937 10.3886C162.545 10.4289 162.925 10.4574 163.077 10.4736C163.558 10.5221 163.907 10.65 164.123 10.8573C164.293 11.0191 164.395 11.2306 164.427 11.4915C164.446 11.6477 164.456 11.8245 164.456 12.0208C164.456 12.4735 164.412 12.8048 164.326 13.0148C164.169 13.4002 163.817 13.6437 163.269 13.7459C163.04 13.7891 162.689 13.8107 162.217 13.8107C161.428 13.8107 160.879 13.7638 160.569 13.6695C160.188 13.554 159.937 13.3199 159.816 12.9676C159.748 12.7714 159.715 12.4445 159.715 11.9871H161.122C161.122 12.0381 161.122 12.0772 161.122 12.1041C161.122 12.3482 161.192 12.505 161.332 12.575C161.43 12.6232 161.547 12.6485 161.684 12.6516H162.202C162.466 12.6516 162.634 12.6381 162.707 12.6109C162.836 12.56 162.921 12.4781 162.962 12.3648C162.984 12.2949 162.994 12.2047 162.994 12.0942C162.994 11.8467 162.904 11.6962 162.724 11.6421C162.656 11.6208 162.342 11.591 161.782 11.5534C161.332 11.5212 161.02 11.4903 160.845 11.4604C160.384 11.3742 160.077 11.1968 159.924 10.9277C159.789 10.6991 159.721 10.3532 159.721 9.89025C159.721 9.53788 159.758 9.25523 159.831 9.04271C159.903 8.83005 160.021 8.66865 160.183 8.55824C160.42 8.38868 160.724 8.28924 161.093 8.25953C161.401 8.23263 161.742 8.21898 162.117 8.21898C162.708 8.21898 163.129 8.25297 163.38 8.32029C163.992 8.4849 164.299 8.94581 164.299 9.70329C164.299 9.76539 164.294 9.85827 164.285 9.98246Z" fill="#10298E"/>
<path d="M170.475 13.8107V8.1893H172.68H173.026H173.293C173.68 8.1893 173.975 8.22075 174.178 8.28392C174.641 8.42912 174.952 8.72663 175.112 9.17603C175.194 9.41198 175.235 9.76716 175.235 10.2415C175.235 10.8117 175.189 11.2214 175.099 11.471C174.918 11.9643 174.546 12.2485 173.984 12.3221C173.918 12.3332 173.637 12.343 173.141 12.351L172.89 12.3593H171.988V13.8107H170.475ZM171.988 11.0553H172.931C173.23 11.0446 173.412 11.0216 173.477 10.9856C173.566 10.9364 173.627 10.8379 173.656 10.6903C173.676 10.5921 173.685 10.446 173.685 10.2519C173.685 10.0141 173.666 9.83782 173.628 9.72273C173.574 9.56146 173.443 9.46337 173.237 9.42763C173.196 9.42228 173.098 9.41934 172.943 9.41934H171.988V11.0553Z" fill="#10298E"/>
<path d="M178.464 12.8392H176.442L176.17 13.8107H174.604L176.294 8.1893H178.576L180.285 13.8107H178.753L178.464 12.8392ZM178.164 11.7441L177.455 9.30732L176.767 11.7441H178.164Z" fill="#10298E"/>
<path d="M168.386 8.98019C169.01 8.98019 169.567 9.26766 169.933 9.71786L170.259 9.0186C169.749 8.53654 169.055 8.2393 168.289 8.2393C167.097 8.2393 166.077 8.95931 165.659 9.97856H165.023L164.647 10.7836H165.466C165.459 10.8582 165.455 10.9329 165.455 11.0092C165.455 11.1014 165.46 11.1927 165.469 11.2827H165.058L164.683 12.088H165.678C166.109 13.0814 167.116 13.7788 168.289 13.7788C168.881 13.7788 169.429 13.6016 169.884 13.2989V12.312C169.518 12.7286 168.983 12.9919 168.386 12.9919C167.689 12.9919 167.075 12.6323 166.718 12.088H168.803L169.178 11.2827H166.411C166.397 11.1858 166.389 11.0868 166.389 10.9859C166.389 10.9177 166.393 10.8502 166.4 10.7836H169.411L169.787 9.97856H166.66C167.006 9.38181 167.649 8.98019 168.386 8.98019Z" fill="#FFBE00"/>
<path d="M168.386 9.00427C168.981 9.00427 169.538 9.27006 169.914 9.73312L169.939 9.76309L169.955 9.72816L170.281 9.0289L170.288 9.01297L170.276 9.00093C169.74 8.49425 169.034 8.21521 168.289 8.21521C167.708 8.21521 167.148 8.38517 166.671 8.70677C166.204 9.02074 165.847 9.45742 165.637 9.96933L165.659 9.95434H165.023H165.007L165.001 9.96826L164.626 10.7734L164.61 10.8078H164.647H165.466L165.442 10.7815C165.435 10.8652 165.431 10.9395 165.431 11.0092C165.431 11.0995 165.436 11.1925 165.445 11.2851L165.469 11.2586H165.058H165.043L165.037 11.2726L164.661 12.0777L164.645 12.1121H164.683H165.679L165.656 12.0975C166.105 13.1335 167.139 13.8029 168.289 13.8029C168.866 13.8029 169.422 13.6357 169.897 13.3191L169.908 13.312V13.2989V12.312V12.2479L169.866 12.2961C169.491 12.7229 168.952 12.9675 168.386 12.9675C167.721 12.9675 167.105 12.6336 166.738 12.0746L166.718 12.1121H168.803H168.818L168.825 12.0983L169.2 11.2929L169.216 11.2586H169.178H166.411L166.435 11.2793C166.421 11.1817 166.414 11.0832 166.414 10.9859C166.414 10.9197 166.417 10.8525 166.424 10.786L166.4 10.8078H169.411H169.427L169.433 10.7939L169.809 9.98873L169.825 9.95434H169.787H166.66L166.681 9.9906C167.033 9.38221 167.687 9.00427 168.386 9.00427ZM166.66 10.0026H169.787L169.765 9.96826L169.389 10.7734L169.411 10.7595H166.4H166.378L166.375 10.7813C166.369 10.8493 166.365 10.9182 166.365 10.9859C166.365 11.0855 166.373 11.1866 166.387 11.2864L166.391 11.307H166.411H169.178L169.157 11.2726L168.781 12.0777L168.803 12.0638H166.718H166.673L166.698 12.101C167.074 12.674 167.705 13.0157 168.386 13.0157C168.965 13.0157 169.518 12.7652 169.902 12.328L169.86 12.312V13.2989L169.87 13.279C169.403 13.5901 168.857 13.7546 168.289 13.7546C167.158 13.7546 166.142 13.0965 165.701 12.0782L165.694 12.0638H165.679H164.683L164.705 12.0983L165.08 11.2929L165.058 11.307H165.469H165.496L165.493 11.2803C165.484 11.1893 165.48 11.0979 165.48 11.0092C165.48 10.9409 165.483 10.8677 165.49 10.7856L165.492 10.7595H165.466H164.647L164.669 10.7939L165.045 9.98873L165.023 10.0026H165.659H165.675L165.681 9.98766C165.888 9.48459 166.239 9.05553 166.698 8.74678C167.167 8.43081 167.717 8.26366 168.289 8.26366C169.022 8.26366 169.716 8.53788 170.243 9.03613L170.237 9.00829L169.911 9.70769L169.952 9.7026C169.566 9.22817 168.995 8.95596 168.386 8.95596C167.67 8.95596 167 9.34313 166.639 9.96638L166.618 10.0026H166.66Z" fill="#10298E"/>
<path d="M200.609 13.8881H200.454L200.3 14.7514H200.45C200.806 14.7514 200.965 14.5661 200.965 14.2187C200.965 13.9997 200.845 13.8881 200.609 13.8881ZM200.411 15.2104H200.218L200.03 16.2917H199.429L199.935 13.429H200.729C201.197 13.429 201.6 13.6096 201.6 14.1672C201.6 14.8884 201.12 15.2104 200.411 15.2104Z" fill="#176FC1"/>
<path d="M202.572 14.7723C202.35 14.7723 202.132 15.1417 202.132 15.5485C202.132 15.758 202.182 15.8811 202.284 15.8811C202.461 15.8811 202.712 15.4785 202.806 14.9529L202.822 14.8626C202.785 14.8334 202.724 14.7723 202.572 14.7723ZM203.122 16.2917H202.568L202.617 16.0039C202.523 16.1519 202.383 16.3331 202.067 16.3331C201.804 16.3331 201.549 16.1272 201.549 15.6102C201.549 14.8668 201.989 14.3203 202.498 14.3203C202.785 14.3203 202.892 14.4393 202.929 14.4765L202.95 14.3617H203.463L203.122 16.2917Z" fill="#176FC1"/>
<path d="M204.67 16.1729C204.387 16.7391 204.104 17.0717 203.446 17.1542L203.385 16.7518C203.636 16.6736 203.89 16.5467 204.03 16.2627L204.087 16.1477L203.751 14.3617H204.338L204.486 15.4128L204.97 14.3617H205.582L204.67 16.1729Z" fill="#176FC1"/>
<path d="M208.268 16.2917H207.713L207.939 15.0186C207.955 14.9368 207.951 14.8543 207.857 14.8543C207.685 14.8543 207.376 15.2652 207.291 15.758L207.196 16.2917H206.641L206.868 15.0186C206.883 14.9368 206.88 14.8543 206.785 14.8543C206.613 14.8543 206.305 15.2652 206.218 15.758L206.124 16.2917H205.57L205.91 14.3617H206.465L206.387 14.8135C206.51 14.6118 206.703 14.3203 207.036 14.3203C207.335 14.3203 207.467 14.5135 207.446 14.8218C207.553 14.6446 207.754 14.3203 208.108 14.3203C208.449 14.3203 208.572 14.571 208.502 14.9649L208.268 16.2917Z" fill="#176FC1"/>
<path d="M209.882 14.7146C209.709 14.7146 209.545 14.9326 209.479 15.2447C209.845 15.1954 210.066 15.1094 210.066 14.8952C210.066 14.7723 209.992 14.7146 209.882 14.7146ZM209.45 15.5612C209.459 15.7739 209.549 15.8811 209.734 15.8811C209.947 15.8811 210.152 15.7701 210.305 15.676L210.457 16.0372C210.329 16.1317 210.054 16.3332 209.656 16.3332C209.225 16.3332 208.88 16.1239 208.88 15.5405C208.88 14.8626 209.253 14.3203 209.911 14.3203C210.404 14.3203 210.617 14.5343 210.617 14.8626C210.617 15.3965 210.181 15.524 209.45 15.5612Z" fill="#176FC1"/>
<path d="M212.456 16.2917H211.902L212.128 15.0186C212.145 14.9368 212.14 14.8543 212.046 14.8543C211.874 14.8543 211.565 15.2652 211.479 15.758L211.385 16.2917H210.83L211.171 14.3617H211.726L211.648 14.8135C211.771 14.6118 211.964 14.3203 212.296 14.3203C212.637 14.3203 212.76 14.571 212.691 14.9649L212.456 16.2917Z" fill="#176FC1"/>
<path d="M214.182 14.7723H213.894L213.726 15.7248C213.709 15.8073 213.738 15.8479 213.8 15.8479C213.857 15.8479 213.903 15.832 213.956 15.8073L214.013 16.1889C213.931 16.2424 213.775 16.3331 213.553 16.3331C213.266 16.3331 213.098 16.1519 213.167 15.7623L213.34 14.7723H213.135L213.208 14.3617H213.414L213.528 13.9428L214.063 13.8276L213.968 14.3617H214.256L214.182 14.7723Z" fill="#176FC1"/>
<path d="M215.73 14.949C215.611 14.8667 215.422 14.7766 215.275 14.7766C215.159 14.7766 215.081 14.8175 215.081 14.912C215.081 14.998 215.168 15.0357 215.283 15.0843L215.389 15.1295C215.586 15.2116 215.804 15.3429 215.804 15.6879C215.804 16.0986 215.586 16.333 215.093 16.333C214.691 16.333 214.456 16.1561 214.309 16.0497L214.526 15.6679C214.67 15.774 214.896 15.8768 215.044 15.8768C215.172 15.8768 215.224 15.8319 215.224 15.7374C215.224 15.6429 215.134 15.6015 215.02 15.5564L214.909 15.5118C214.712 15.4336 214.502 15.3021 214.502 14.9608C214.502 14.5176 214.843 14.3204 215.27 14.3204C215.615 14.3204 215.829 14.4931 215.927 14.5665L215.73 14.949Z" fill="#176FC1"/>
<path d="M208.274 11.0635H207.076L206.96 11.7291H207.888L207.802 12.2226H206.875L206.66 13.4329H206.059L206.566 10.5702H208.364L208.274 11.0635Z" fill="#176FC1"/>
<path d="M209.031 11.9132C208.809 11.9132 208.591 12.283 208.591 12.6894C208.591 12.8991 208.64 13.0222 208.743 13.0222C208.92 13.0222 209.17 12.62 209.264 12.0942L209.281 12.0039C209.244 11.9749 209.183 11.9132 209.031 11.9132ZM209.581 13.4328H209.026L209.076 13.1452C208.981 13.2932 208.842 13.474 208.525 13.474C208.262 13.474 208.008 13.2685 208.008 12.7515C208.008 12.0079 208.448 11.4615 208.956 11.4615C209.244 11.4615 209.351 11.5808 209.388 11.6176L209.408 11.5028H209.922L209.581 13.4328Z" fill="#176FC1"/>
<path d="M211.458 12.09C211.339 12.0078 211.15 11.9173 211.002 11.9173C210.887 11.9173 210.809 11.9587 210.809 12.0528C210.809 12.1391 210.896 12.1759 211.01 12.2253L211.117 12.2708C211.314 12.3528 211.532 12.4837 211.532 12.829C211.532 13.24 211.314 13.4739 210.822 13.4739C210.419 13.4739 210.185 13.2973 210.037 13.191L210.255 12.8087C210.398 12.9153 210.624 13.018 210.772 13.018C210.899 13.018 210.953 12.973 210.953 12.8785C210.953 12.784 210.863 12.7429 210.748 12.6975L210.637 12.6527C210.44 12.5744 210.23 12.4433 210.23 12.1023C210.23 11.6589 210.571 11.4616 210.998 11.4616C211.343 11.4616 211.556 11.6339 211.655 11.7075L211.458 12.09Z" fill="#176FC1"/>
<path d="M212.998 11.9132H212.711L212.542 12.8665C212.526 12.9484 212.554 12.9896 212.616 12.9896C212.674 12.9896 212.719 12.9729 212.772 12.9484L212.829 13.33C212.747 13.3837 212.591 13.474 212.37 13.474C212.083 13.474 211.914 13.2932 211.984 12.9033L212.156 11.9132H211.95L212.025 11.5028H212.23L212.345 11.0839L212.879 10.9687L212.784 11.5028H213.072L212.998 11.9132Z" fill="#176FC1"/>
<path d="M214.16 11.8558C213.988 11.8558 213.823 12.0733 213.758 12.3852C214.123 12.3361 214.345 12.2501 214.345 12.0365C214.345 11.9131 214.271 11.8558 214.16 11.8558ZM213.729 12.7017C213.737 12.9153 213.828 13.022 214.013 13.022C214.226 13.022 214.431 12.9113 214.584 12.817L214.735 13.1781C214.608 13.2726 214.333 13.4739 213.934 13.4739C213.503 13.4739 213.158 13.2646 213.158 12.6816C213.158 12.0038 213.532 11.4616 214.19 11.4616C214.682 11.4616 214.895 11.6752 214.895 12.0038C214.895 12.5376 214.46 12.6649 213.729 12.7017Z" fill="#176FC1"/>
<path d="M216.464 12.0612C216.185 12.0612 215.864 12.2993 215.758 12.8991L215.664 13.4328H215.109L215.45 11.5026H215.992L215.923 11.9092C216.049 11.6218 216.197 11.4615 216.571 11.4615L216.464 12.0612Z" fill="#176FC1"/>
<path d="M208.093 8.82686V8.83659C208.092 8.97444 207.983 9.11273 207.768 9.21675L200.54 12.7175C200.105 12.9283 199.945 12.7566 200.181 12.3363L201.504 9.98639C201.696 9.64344 201.805 9.24805 201.805 8.82686C201.805 8.40547 201.696 8.00986 201.504 7.66734L200.181 5.31741C199.945 4.89686 200.105 4.72517 200.54 4.93598L207.768 8.43655C207.983 8.54163 208.092 8.67928 208.093 8.81714V8.82686Z" fill="#176FC1"/>
</svg>
