<svg width="25" height="24" viewBox="0 0 25 24" fill="none" xmlns="http://www.w3.org/2000/svg">
<g id="arrow-down-arrow-up">
<path id="arrow-down-arrow-up_2" d="M8.12572 2.46995C8.26861 2.61595 8.341 2.80798 8.341 2.99998C8.341 3.19198 8.26959 3.38401 8.12572 3.53001L5.46381 6.24998L17.3936 6.24998C17.7987 6.24998 18.1276 6.58598 18.1276 6.99998C18.1276 7.41398 17.7987 7.74998 17.3936 7.74998L5.46476 7.74998L8.12668 10.4699C8.41343 10.7629 8.41343 11.238 8.12668 11.531C7.83993 11.824 7.37504 11.824 7.08829 11.531L3.17367 7.53098C3.10614 7.46198 3.05244 7.37909 3.01526 7.28709C2.94088 7.10409 2.94088 6.89709 3.01526 6.71409C3.05244 6.62209 3.10614 6.53895 3.17367 6.46995L7.08829 2.46995C7.37504 2.17695 7.83898 2.17695 8.12572 2.46995ZM16.8749 13.53L19.5368 16.25L7.60701 16.25C7.20184 16.25 6.87302 16.586 6.87302 17C6.87302 17.414 7.20184 17.75 7.60701 17.75L19.5358 17.75L16.8739 20.4699C16.5872 20.7629 16.5872 21.238 16.8739 21.531C17.1606 21.824 17.6255 21.824 17.9123 21.531L21.8269 17.531C21.8944 17.462 21.9481 17.3791 21.9853 17.2881C22.0225 17.1971 22.0422 17.099 22.0422 17.001C22.0422 16.903 22.0225 16.8061 21.9853 16.7141C21.9481 16.6221 21.8944 16.5399 21.8269 16.4709L17.9123 12.4709C17.6255 12.1779 17.1606 12.1779 16.8739 12.4709C16.5872 12.7639 16.5881 13.237 16.8749 13.53Z" fill="#00B881"/>
</g>
</svg>
