<svg width="32" height="32" viewBox="0 0 32 32" fill="none" xmlns="http://www.w3.org/2000/svg">
<path opacity="0.4" d="M10 24.0133C10 24.9866 10.2933 25.8666 10.84 26.6266C7.26667 26.3999 4 25.0933 4 22.68V21.5066C5.4 22.6 7.46667 23.3333 10 23.5733V24.0133ZM10.04 18.5866C7.48004 18.36 5.4 17.6266 4 16.52V17.6933C4 19.92 6.77333 21.1999 10 21.5733V19.0267C10 18.8933 10.0134 18.7599 10.04 18.6266C10.04 18.6133 10.04 18.6 10.0533 18.5866H10.04ZM12 13.9733C8.54667 13.9733 5.74667 13.1733 4 11.7999V12.7067C4 15.1067 7.21334 16.4133 10.76 16.6399C11.64 15.3599 13.2267 14.3333 15.2533 13.7067C14.2533 13.88 13.16 13.9733 12 13.9733ZM16.9867 13.2933C17.92 13.1333 18.92 13.04 19.9733 13.04C19.9866 12.9333 20 12.8267 20 12.7067V11.7999C19.2 12.4266 18.1867 12.9333 16.9867 13.2933Z" fill="#00B881"/>
<path d="M12 11.9733C16.4183 11.9733 20 10.1884 20 7.98665C20 5.78488 16.4183 4 12 4C7.58172 4 4 5.78488 4 7.98665C4 10.1884 7.58172 11.9733 12 11.9733Z" fill="#00B881"/>
<path opacity="0.4" d="M28 22.7067V24.0133C28 26.6666 24 28 20 28C16 28 12 26.6666 12 24.0133V22.7067C13.8 24.1333 16.6533 25.0133 20 25.0133C23.3467 25.0133 26.2 24.1333 28 22.7067Z" fill="#00B881"/>
<path d="M28 19.0267C28 21.2267 24.4133 23.0133 20 23.0133C15.5867 23.0133 12 21.2267 12 19.0267C12 16.8267 15.5867 15.04 20 15.04C24.4133 15.04 28 16.8267 28 19.0267Z" fill="#00B881"/>
</svg>
