<svg width="32" height="32" viewBox="0 0 32 32" fill="none" xmlns="http://www.w3.org/2000/svg">
<path d="M27.9999 3.99996C27.2625 3.99996 26.6665 4.59729 26.6665 5.33329V8.0107C24.1959 4.71337 20.2705 2.66663 15.9999 2.66663C9.18519 2.66663 3.49045 7.76408 2.75311 14.5227C2.67311 15.2547 3.20243 15.9121 3.93443 15.9934C3.98376 15.9988 4.03194 16.0013 4.07994 16.0013C4.75194 16.0013 5.3305 15.4958 5.40383 14.8118C5.99183 9.40781 10.5466 5.33459 15.9986 5.33459C19.8479 5.33459 23.3358 7.42126 25.2118 10.6679H21.3332C20.5959 10.6679 19.9999 11.2653 19.9999 12.0013C19.9999 12.7373 20.5959 13.3346 21.3332 13.3346H27.9999C28.7372 13.3346 29.3332 12.7373 29.3332 12.0013V5.33459C29.3332 4.59726 28.7372 3.99996 27.9999 3.99996Z" fill="#00B881"/>
<path opacity="0.4" d="M28.0654 16.0081C27.3174 15.9295 26.6747 16.4574 26.5947 17.1894C26.0067 22.5934 21.452 26.6667 16 26.6667C12.1507 26.6667 8.66278 24.58 6.78678 21.3333H10.6667C11.404 21.3333 12 20.736 12 20C12 19.264 11.404 18.6667 10.6667 18.6667H4C3.26266 18.6667 2.66666 19.264 2.66666 20V26.6667C2.66666 27.4027 3.26266 28 4 28C4.73733 28 5.33333 27.4027 5.33333 26.6667V23.9892C7.804 27.2866 11.7293 29.3333 16 29.3333C22.8147 29.3333 28.5094 24.2359 29.2467 17.4772C29.3254 16.7452 28.7974 16.0881 28.0654 16.0081Z" fill="#00B881"/>
</svg>
