<svg width="32" height="32" viewBox="0 0 32 32" fill="none" xmlns="http://www.w3.org/2000/svg">
<path d="M6.66666 29.3334H3.99999C3.26399 29.3334 2.66666 28.736 2.66666 28V22.6667C2.66666 21.9307 3.26399 21.3334 3.99999 21.3334H6.66666C7.40266 21.3334 7.99999 21.9307 7.99999 22.6667V28C7.99999 28.736 7.40266 29.3334 6.66666 29.3334Z" fill="#00B881"/>
<path opacity="0.4" d="M28 23.1467C28 23.68 27.76 24.2001 27.3333 24.5334L22.8 28.16C21.8534 28.92 20.68 29.3334 19.4667 29.3334H12C10.5333 29.3334 9.33334 28.1334 9.33334 26.6667V24C9.33334 22.5334 10.5333 21.3334 12 21.3334H18.8267C19.6533 21.3334 20.3333 22 20.3333 22.8267C20.3333 23.6667 19.6533 24.3334 18.8267 24.3334H14.6667C14.12 24.3334 13.6667 24.7867 13.6667 25.3334C13.6667 25.88 14.12 26.3334 14.6667 26.3334H18.8267C20.56 26.3334 22 25.0666 22.28 23.4266L25.3067 21.6133C25.6 21.44 25.9067 21.3601 26.2133 21.3601C27.1467 21.3601 28 22.1067 28 23.1467Z" fill="#00B881"/>
<path opacity="0.4" d="M16 18C20.4183 18 24 14.4183 24 10C24 5.58172 20.4183 2 16 2C11.5817 2 8 5.58172 8 10C8 14.4183 11.5817 18 16 18Z" fill="#00B881"/>
<path d="M19 11.8826C19 10.6266 18.168 9.53192 16.9747 9.21859L15.528 8.84538C15.38 8.80671 15.2507 8.71859 15.1507 8.58659C15.0533 8.45859 15 8.29202 15 8.11735C15 7.70535 15.3067 7.3693 15.6853 7.3693H16.316C16.6627 7.3693 16.956 7.6547 16.9973 8.03337C17.056 8.5827 17.5427 8.97592 18.1 8.91992C18.6493 8.86126 19.0453 8.36672 18.9867 7.81738C18.8613 6.65605 18.0413 5.74267 16.9827 5.46533V5.33203C16.9827 4.78003 16.5347 4.33203 15.9827 4.33203C15.4307 4.33203 14.9827 4.78003 14.9827 5.33203V5.47738C13.8453 5.79604 13.0027 6.85205 13.0027 8.11605C13.0027 8.72538 13.2013 9.32006 13.5587 9.78939C13.9227 10.2747 14.444 10.6253 15.0293 10.7786L16.476 11.152C16.7867 11.2334 17.004 11.5334 17.004 11.88C17.004 12.084 16.928 12.276 16.7906 12.4186C16.7146 12.4973 16.5547 12.6266 16.3187 12.6266H15.688C15.3413 12.6266 15.048 12.3414 15.0067 11.9627C14.948 11.4134 14.4627 11.0187 13.904 11.076C13.3547 11.1347 12.9587 11.6294 13.0173 12.1787C13.1413 13.324 13.9413 14.2281 14.9813 14.5187V14.6667C14.9813 15.2187 15.4293 15.6667 15.9813 15.6667C16.5333 15.6667 16.9813 15.2187 16.9813 14.6667V14.5334C17.4467 14.4107 17.8774 14.1707 18.2267 13.8094C18.7254 13.2921 19 12.6067 19 11.8826Z" fill="#00B881"/>
</svg>
