<svg width="32" height="32" viewBox="0 0 32 32" fill="none" xmlns="http://www.w3.org/2000/svg">
<path opacity="0.4" d="M16 29.3333C23.3638 29.3333 29.3333 23.3638 29.3333 16C29.3333 8.63616 23.3638 2.66663 16 2.66663C8.63619 2.66663 2.66666 8.63616 2.66666 16C2.66666 23.3638 8.63619 29.3333 16 29.3333Z" fill="#00B881"/>
<path d="M19.896 15.66C20.3467 15.0774 20.6253 14.3548 20.6253 13.5601C20.6253 11.8934 19.444 10.5014 17.88 10.188V9.33337C17.88 8.78137 17.432 8.33337 16.88 8.33337C16.328 8.33337 15.88 8.78137 15.88 9.33337V10.12H15.092V9.33337C15.092 8.78137 14.644 8.33337 14.092 8.33337C13.54 8.33337 13.092 8.78137 13.092 9.33337V10.12H11.6867C11.1347 10.12 10.6867 10.568 10.6867 11.12C10.6867 11.672 11.1347 12.12 11.6867 12.12H12.3946V19.8801H11.6867C11.1347 19.8801 10.6867 20.3281 10.6867 20.8801C10.6867 21.4321 11.1347 21.8801 11.6867 21.8801H13.092V22.6667C13.092 23.2187 13.54 23.6667 14.092 23.6667C14.644 23.6667 15.092 23.2187 15.092 22.6667V21.8801H15.88V22.6667C15.88 23.2187 16.328 23.6667 16.88 23.6667C17.432 23.6667 17.88 23.2187 17.88 22.6667V21.8801H17.9027C19.784 21.8801 21.3133 20.3373 21.3133 18.44C21.3133 17.2946 20.7507 16.2867 19.896 15.66ZM18.6253 13.5601C18.6253 14.3548 17.992 15 17.2147 15H14.3946V12.12H17.2147C17.992 12.12 18.6253 12.7654 18.6253 13.5601ZM17.9027 19.8801H14.3946V17H17.2147H17.904C18.6813 17 19.3146 17.6453 19.3146 18.44C19.3146 19.2346 18.6813 19.8801 17.9027 19.8801Z" fill="#00B881"/>
</svg>
