<svg width="32" height="32" viewBox="0 0 32 32" fill="none" xmlns="http://www.w3.org/2000/svg">
<path opacity="0.4" d="M24 9.33329H6.66667C5.2 9.33329 4 8.13329 4 6.66663V24C4 26.6666 5.33333 28 8 28H24C26.6667 28 28 26.6666 28 24V13.3333C28 10.6666 26.6667 9.33329 24 9.33329Z" fill="#00B881"/>
<path d="M22 15.3334C20.16 15.3334 18.6667 16.8267 18.6667 18.6667C18.6667 19.5867 19.04 20.4267 19.64 21.0267C20.24 21.6267 21.08 22 22 22H28V15.3334H22ZM22.6667 20C21.9333 20 21.3333 19.4 21.3333 18.6667C21.3333 17.9334 21.9333 17.3334 22.6667 17.3334C23.4 17.3334 24 17.9334 24 18.6667C24 19.4 23.4 20 22.6667 20Z" fill="#00B881"/>
<path d="M4 6.66667C4 7.4 4.29337 8.06663 4.7867 8.54663C5.2667 9.03996 5.93333 9.33333 6.66667 9.33333H24V8C24 5.33333 22.6667 4 20 4H6.66667C5.2 4 4 5.2 4 6.66667Z" fill="#00B881"/>
</svg>
