<svg width="32" height="32" viewBox="0 0 32 32" fill="none" xmlns="http://www.w3.org/2000/svg">
<path d="M9.80533 22.192C9.25066 21.6373 8.53597 21.3226 7.79064 21.3053C7.01997 21.2986 6.25334 21.6013 5.66267 22.192C4.61334 23.2413 3.55733 27.0693 3.35733 27.8253C3.29733 28.0533 3.36134 28.2959 3.52534 28.4639C3.65201 28.5933 3.824 28.6639 4.00133 28.6639C4.05467 28.6639 4.10665 28.6573 4.15998 28.6453C4.88532 28.468 8.55734 27.5306 9.61201 26.4759C10.8453 25.2413 10.932 23.32 9.80533 22.192Z" fill="#00B881"/>
<path d="M12.3467 9.05334C10.4667 11.2133 9.17334 13.92 8.56001 17.1066L4.13333 17.9867C4.09333 18 4.03999 18 3.99999 18C3.79999 18 3.61332 17.92 3.49332 17.76C3.33332 17.5733 3.29333 17.3067 3.38667 17.08L4.66666 13.8934C5.59999 11.5334 7.74667 9.79998 10.2667 9.39998L12.3467 9.05334Z" fill="#00B881"/>
<path d="M22.9466 19.6533L22.6 21.7333C22.2 24.2533 20.4667 26.4 18.0933 27.3467L14.92 28.6133C14.84 28.6533 14.7467 28.6667 14.6667 28.6667C14.52 28.6667 14.36 28.6133 14.24 28.5067C14.0533 28.36 13.96 28.1067 14.0133 27.8667L14.8933 23.44C18.08 22.8266 20.7866 21.5333 22.9466 19.6533Z" fill="#00B881"/>
<path opacity="0.4" d="M28 3C17.2027 3 10.0947 8.27999 8.49866 17.4867C8.33466 18.4253 8.652 19.4 9.34534 20.0933L11.908 22.6573C12.4813 23.2293 13.2467 23.5453 14.0254 23.5453C14.188 23.5453 14.352 23.532 14.5146 23.504C23.7213 21.9067 29.0013 14.7987 29.0013 4.00269C29 3.44802 28.552 3 28 3ZM14.172 21.5307C13.8773 21.58 13.5507 21.4707 13.3213 21.2413L10.7587 18.6773C10.528 18.448 10.4174 18.1213 10.468 17.828C11.548 11.6027 15.2066 8.37201 19.072 6.70801C22.4186 6.91467 25.0853 9.58002 25.292 12.928C23.628 16.7934 20.3987 20.4507 14.172 21.5307Z" fill="#00B881"/>
<path d="M18 17C19.6569 17 21 15.6569 21 14C21 12.3431 19.6569 11 18 11C16.3431 11 15 12.3431 15 14C15 15.6569 16.3431 17 18 17Z" fill="#00B881"/>
</svg>
