<svg width="49" height="48" viewBox="0 0 49 48" fill="none" xmlns="http://www.w3.org/2000/svg">
<path d="M18.542 44.5C17.164 44.5 16.032 43.38 16.032 42C16.032 40.62 17.142 39.5 18.522 39.5H18.542C19.922 39.5 21.042 40.62 21.042 42C21.042 43.38 19.922 44.5 18.542 44.5Z" fill="#00B881"/>
<path d="M34.542 44.5C33.164 44.5 32.032 43.38 32.032 42C32.032 40.62 33.142 39.5 34.522 39.5H34.542C35.922 39.5 37.042 40.62 37.042 42C37.042 43.38 35.922 44.5 34.542 44.5Z" fill="#00B881"/>
<path opacity="0.4" d="M38.5 12H14.3821L13.9641 9.228C13.5761 6.488 11.2841 4.5 8.51807 4.5H7.99805C7.17005 4.5 6.49805 5.172 6.49805 6C6.49805 6.828 7.17005 7.5 7.99805 7.5H8.51807C9.77607 7.5 10.8161 8.404 10.9961 9.664L13.998 30.56C14.278 32.54 15.958 34 17.958 34H34.498C38.698 34 39.8779 31.92 40.3979 29.08L42.418 16.72C42.88 14.26 40.98 12 38.5 12Z" fill="#00B881"/>
<path d="M25.1202 27.166C24.7222 27.166 24.3401 27.008 24.0601 26.726L21.3941 24.06C20.8081 23.474 20.8081 22.524 21.3941 21.938C21.9801 21.352 22.9302 21.352 23.5162 21.938L25.1221 23.544L29.396 19.272C29.982 18.686 30.9321 18.686 31.5181 19.272C32.1041 19.858 32.1041 20.808 31.5181 21.394L26.1841 26.728C25.8981 27.008 25.5182 27.166 25.1202 27.166Z" fill="#00B881"/>
</svg>
