<svg width="49" height="48" viewBox="0 0 49 48" fill="none" xmlns="http://www.w3.org/2000/svg">
<path opacity="0.4" d="M24.5 44C35.5457 44 44.5 35.0457 44.5 24C44.5 12.9543 35.5457 4 24.5 4C13.4543 4 4.5 12.9543 4.5 24C4.5 35.0457 13.4543 44 24.5 44Z" fill="#00B881"/>
<path d="M30.4439 28.0339C30.4439 25.6299 28.8139 23.538 26.4719 22.946L23.2559 22.1479C22.7599 22.0239 22.338 21.7461 22.02 21.3401C21.72 20.9601 21.554 20.472 21.554 19.97C21.554 18.732 22.5599 17.7261 23.7979 17.7261H25.1979C26.3419 17.7261 27.2999 18.5861 27.4299 19.7261C27.5219 20.5501 28.256 21.146 29.088 21.05C29.912 20.958 30.5039 20.2161 30.4119 19.3921C30.1419 16.9881 28.2819 15.1339 25.9539 14.7959V14C25.9539 13.172 25.2819 12.5 24.4539 12.5C23.6259 12.5 22.9539 13.172 22.9539 14V14.8081C20.4639 15.2161 18.554 17.3641 18.554 19.9661C18.554 21.1401 18.948 22.2881 19.658 23.1841C20.37 24.1021 21.3859 24.766 22.5259 25.054L25.7419 25.8521C26.7439 26.1061 27.4439 27.002 27.4439 28.03C27.4439 28.626 27.2099 29.188 26.7839 29.614C26.3579 30.04 25.796 30.2739 25.2 30.2739H23.7999C22.6559 30.2739 21.6979 29.4139 21.5679 28.2739C21.4759 27.4499 20.7239 26.85 19.9099 26.95C19.0859 27.042 18.4939 27.7839 18.5859 28.6079C18.8519 30.9819 20.6679 32.8241 22.9539 33.1941V34C22.9539 34.828 23.6259 35.5 24.4539 35.5C25.2819 35.5 25.9539 34.828 25.9539 34V33.2041C27.0639 33.0421 28.0939 32.55 28.9039 31.74C29.8979 30.746 30.4439 29.4299 30.4439 28.0339Z" fill="#00B881"/>
</svg>
