<svg width="49" height="48" viewBox="0 0 49 48" fill="none" xmlns="http://www.w3.org/2000/svg">
<path opacity="0.4" d="M18.8259 38.1801L6.02393 25.366C5.04793 24.39 4.5 23.064 4.5 21.682V11.472C4.5 9.55405 6.05402 8 7.96802 8H18.168C19.548 8 20.8719 8.548 21.8479 9.526L34.6499 22.34C37.1599 24.852 37.0739 27.2801 34.6499 29.7061L26.1841 38.1801C23.7601 40.6061 21.2499 40.6061 18.8259 38.1801Z" fill="#00B881"/>
<path d="M30.5001 41.5C29.6721 41.5 29.0001 40.828 29.0001 40C29.0001 39.172 29.6721 38.5 30.5001 38.5C31.3381 38.5 32.2142 38.0381 33.1102 37.1281L41.5779 28.64C42.5219 27.704 42.9981 26.828 43.0001 26.032C43.0021 25.23 42.5241 24.344 41.5801 23.4L28.7801 10.58C28.1601 9.94998 27.3281 9.57596 26.4241 9.51796C25.5961 9.46396 24.968 8.74997 25.024 7.92397C25.076 7.09597 25.864 6.48007 26.616 6.52407C28.262 6.63007 29.7882 7.32207 30.9122 8.47207L43.702 21.282C45.232 22.81 46.0041 24.4121 46.0001 26.0401C45.9981 27.6641 45.2221 29.254 43.6981 30.768L35.242 39.242C33.77 40.736 32.1721 41.5 30.5001 41.5Z" fill="#00B881"/>
<path d="M11.604 17.1C10.504 17.1 9.6001 16.204 9.6001 15.1C9.6001 13.996 10.4839 13.1 11.5859 13.1H11.606C12.708 13.1 13.6021 13.996 13.6021 15.1C13.6021 16.204 12.708 17.1 11.604 17.1Z" fill="#00B881"/>
</svg>
