<svg width="49" height="48" viewBox="0 0 49 48" fill="none" xmlns="http://www.w3.org/2000/svg">
<path opacity="0.4" d="M42.5 10C32.5 8 28.9441 6.222 24.5361 4C20.0561 6.222 16.5 8 6.5 10C6.5 12.274 6.5 19.4038 6.5 21.7778C6.5 35.1118 17.834 41.778 24.5 44C31.166 41.778 42.5 35.1118 42.5 21.7778C42.5 19.3278 42.5 12.388 42.5 10Z" fill="#00B881"/>
<path d="M22.524 29.5C22.14 29.5 21.7559 29.3541 21.4639 29.0601L17.4639 25.0601C16.8779 24.4741 16.8779 23.524 17.4639 22.938C18.0499 22.352 19 22.352 19.586 22.938L22.5259 25.878L29.4659 18.938C30.0519 18.352 31.0019 18.352 31.5879 18.938C32.1739 19.524 32.1739 20.4741 31.5879 21.0601L23.5879 29.0601C23.2919 29.3541 22.908 29.5 22.524 29.5Z" fill="#00B881"/>
</svg>
